<svg width="918" height="140" viewBox="0 0 918 140" fill="currentColor" xmlns="http://www.w3.org/2000/svg">
<mask id="mask0_77_12" style="mask-type:luminance" maskUnits="userSpaceOnUse" x="0" y="0" width="139" height="140">
<path d="M69.5 139.335C107.884 139.335 139 108.144 139 69.6674C139 31.1912 107.884 0 69.5 0C31.1162 0 0 31.1912 0 69.6674C0 108.144 31.1162 139.335 69.5 139.335Z" fill="#fff"/>
</mask>
<g mask="url(#mask0_77_12)">
<path d="M68.2179 -2.8227C72.475 -3.18738 76.7496 -2.96681 81.0008 -2.64625C92.3783 -1.71691 103.533 1.86808 113.329 7.74994C122.248 13.1789 130.099 20.4136 136.052 29.0158C143.325 39.4502 147.881 51.7786 149.069 64.454C149.498 68.1743 149.392 71.924 149.357 75.659C148.6 95.3779 139.068 114.273 124.61 127.49C111.252 139.792 93.367 147.247 75.1741 147.365C63.5854 147.744 51.8969 145.38 41.3995 140.412C31.9349 136.03 23.4002 129.654 16.4851 121.837C9.03604 113.582 3.61133 103.56 0.4897 92.8928C-3.08081 80.6233 -3.33899 67.4626 -0.581159 55.0048C2.86026 39.8237 11.4095 25.9602 23.0511 15.714C35.4115 4.59726 51.6886 -1.84631 68.2179 -2.8227ZM73.4373 13.8053C62.1566 15.114 51.1869 20.0783 43.2478 28.3012C35.1034 36.5505 30.3594 48.1289 30.6674 59.7574C30.8816 69.3448 35.1973 78.9293 42.7168 84.9641C47.7953 89.0696 54.3056 91.3194 60.8246 91.2665C64.1311 91.2547 67.4346 91.2724 70.7411 91.2518C70.7 94.2221 70.7323 97.1925 70.7147 100.163C67.9128 100.354 65.1169 100.71 62.3033 100.598C55.617 100.789 48.8691 99.3188 42.9251 96.2308C33.7128 91.5429 26.4691 83.1437 23.1978 73.318C20.4106 65.1775 20.3226 56.34 21.8072 47.9289C18.8528 47.9231 15.8983 47.9289 12.9439 47.926C11.125 58.0369 11.7704 68.7213 15.5962 78.3088C17.6733 83.5701 20.6776 88.452 24.3978 92.7076C32.0874 101.574 43.0542 107.562 54.7075 109C60.5283 109.627 66.5632 109.341 72.0936 107.259C76.2215 105.68 80.0531 103.233 83.1161 100.028C86.7042 96.4484 89.4151 91.8665 90.3422 86.8404C91.1872 82.3761 90.7471 77.5265 88.4352 73.5474C85.8827 68.9125 80.7426 65.9627 75.491 65.8774C70.3743 65.8892 65.2577 65.8804 60.1439 65.8892C60.141 62.8748 60.1469 59.8574 60.1439 56.8429C64.9672 56.8517 69.7905 56.8429 74.6138 56.8488C79.0146 56.6341 83.4858 57.5164 87.3907 59.5868C92.1788 62.0307 95.9606 66.248 98.1434 71.1447C100.895 77.2 101.33 84.2142 99.578 90.6136C98.2519 95.8102 95.6114 100.613 92.1641 104.698C85.8241 112.224 76.5237 117.038 66.8156 118.302C59.9885 119.267 53.0323 118.605 46.3548 116.991C46.3753 119.917 46.3724 122.846 46.3695 125.772C52.9531 127.372 59.7978 127.849 66.5368 127.181C77.3804 126.169 87.8866 121.44 95.7141 113.829C102.761 107.159 107.673 98.163 109.11 88.5256C110.853 77.8529 107.793 66.2951 100.338 58.3575C96.0251 53.7196 90.2337 50.4728 84.0256 49.2582C80.0678 48.5142 76.022 48.8642 72.0202 48.8289C72.0408 45.9203 72.0584 43.0146 72.0202 40.1061C74.1443 39.7561 76.3037 39.812 78.4513 39.7943C85.1639 39.6855 91.9147 41.256 97.8382 44.441C107.541 49.6288 114.734 59.0986 117.539 69.7154C119.038 75.0855 119.32 80.7203 119.009 86.2669C121.931 86.261 124.853 86.2581 127.778 86.2669C128.06 81.6144 128.028 76.9089 127.194 72.3122C126.106 65.6775 123.668 59.2751 120.074 53.5991C114.47 44.6116 105.833 37.5945 95.9048 33.9507C90.8879 32.0832 85.5336 31.3244 80.2028 31.1745C76.2626 31.2774 72.2843 31.7538 68.57 33.1419C63.0485 35.1418 58.014 38.665 54.5461 43.444C51.5477 47.5643 49.5674 52.5403 49.4617 57.6752C49.3913 61.4131 50.3566 65.2569 52.6186 68.2772C55.0332 71.6152 59.0731 73.6768 63.1864 73.6886C67.0767 73.7209 70.964 73.6915 74.8543 73.7003C74.869 76.6795 74.8426 79.6587 74.8719 82.6408C70.1866 82.6202 65.5041 82.6437 60.8187 82.6437C55.9544 82.629 51.1575 80.7056 47.5489 77.453C44.2131 74.5944 41.9305 70.6506 40.7012 66.4568C38.5654 59.5162 39.4455 51.8727 42.353 45.288C46.525 35.7447 54.8923 28.3188 64.6093 24.775C75.6025 20.84 87.9364 21.4194 98.8093 25.4779C98.8299 22.3928 98.8592 19.3049 98.7888 16.2228C97.0285 15.7905 95.3122 15.1876 93.5342 14.8258C86.9565 13.3318 80.1294 13.1289 73.4373 13.8053Z" fill="currentColor"/>
</g>
<path d="M180.76 98V46.16H186.052V92.924H210.676V98H180.76ZM217.533 51.74V45.8H222.825V51.74H217.533ZM217.533 98V59.12H222.825V98H217.533ZM244.13 98L230.018 59.12H235.382L246.866 91.088L258.278 59.12H263.714L249.602 98H244.13ZM285.226 99.08C281.434 99.08 278.146 98.24 275.362 96.56C272.602 94.88 270.454 92.516 268.918 89.468C267.382 86.42 266.614 82.844 266.614 78.74C266.614 74.492 267.37 70.82 268.882 67.724C270.394 64.628 272.518 62.24 275.254 60.56C278.014 58.88 281.266 58.04 285.01 58.04C288.85 58.04 292.126 58.928 294.838 60.704C297.55 62.456 299.602 64.976 300.994 68.264C302.386 71.552 303.022 75.476 302.902 80.036H297.502V78.164C297.406 73.124 296.314 69.32 294.226 66.752C292.162 64.184 289.138 62.9 285.154 62.9C280.978 62.9 277.774 64.256 275.542 66.968C273.334 69.68 272.23 73.544 272.23 78.56C272.23 83.456 273.334 87.26 275.542 89.972C277.774 92.66 280.93 94.004 285.01 94.004C287.794 94.004 290.218 93.368 292.282 92.096C294.37 90.8 296.014 88.94 297.214 86.516L302.146 88.424C300.61 91.808 298.342 94.436 295.342 96.308C292.366 98.156 288.994 99.08 285.226 99.08ZM270.358 80.036V75.608H300.058V80.036H270.358ZM317.765 98L305.885 59.084L311.177 59.12L320.393 89.324L329.645 59.12H334.469L343.721 89.324L353.009 59.12H358.265L346.385 98H341.777L332.057 67.04L322.373 98H317.765ZM365.471 51.74V45.8H370.763V51.74H365.471ZM365.471 98V59.12H370.763V98H365.471ZM381.556 98V59.12H386.308V68.48L385.372 67.256C385.804 66.104 386.368 65.048 387.064 64.088C387.76 63.104 388.516 62.3 389.332 61.676C390.34 60.788 391.516 60.116 392.86 59.66C394.204 59.18 395.56 58.904 396.928 58.832C398.296 58.736 399.544 58.832 400.672 59.12V64.088C399.256 63.728 397.708 63.644 396.028 63.836C394.348 64.028 392.8 64.7 391.384 65.852C390.088 66.86 389.116 68.072 388.468 69.488C387.82 70.88 387.388 72.368 387.172 73.952C386.956 75.512 386.848 77.06 386.848 78.596V98H381.556ZM423.25 99.08C419.458 99.08 416.17 98.24 413.386 96.56C410.626 94.88 408.478 92.516 406.942 89.468C405.406 86.42 404.638 82.844 404.638 78.74C404.638 74.492 405.394 70.82 406.906 67.724C408.418 64.628 410.542 62.24 413.278 60.56C416.038 58.88 419.29 58.04 423.034 58.04C426.874 58.04 430.15 58.928 432.862 60.704C435.574 62.456 437.626 64.976 439.018 68.264C440.41 71.552 441.046 75.476 440.926 80.036H435.526V78.164C435.43 73.124 434.338 69.32 432.25 66.752C430.186 64.184 427.162 62.9 423.178 62.9C419.002 62.9 415.798 64.256 413.566 66.968C411.358 69.68 410.254 73.544 410.254 78.56C410.254 83.456 411.358 87.26 413.566 89.972C415.798 92.66 418.954 94.004 423.034 94.004C425.818 94.004 428.242 93.368 430.306 92.096C432.394 90.8 434.038 88.94 435.238 86.516L440.17 88.424C438.634 91.808 436.366 94.436 433.366 96.308C430.39 98.156 427.018 99.08 423.25 99.08ZM408.382 80.036V75.608H438.082V80.036H408.382ZM463.329 98V46.16H493.101V51.452H468.621V69.452H488.781V74.708H468.621V98H463.329ZM500.33 51.74V45.8H505.622V51.74H500.33ZM500.33 98V59.12H505.622V98H500.33ZM517.135 98V45.08H522.427V98H517.135ZM554.388 98C552.204 98.456 550.044 98.636 547.908 98.54C545.796 98.444 543.9 97.988 542.22 97.172C540.564 96.356 539.304 95.084 538.44 93.356C537.744 91.916 537.36 90.464 537.288 89C537.24 87.512 537.216 85.82 537.216 83.924V48.32H542.472V83.708C542.472 85.34 542.484 86.708 542.508 87.812C542.556 88.892 542.808 89.852 543.264 90.692C544.128 92.3 545.496 93.26 547.368 93.572C549.264 93.884 551.604 93.812 554.388 93.356V98ZM528.9 63.656V59.12H554.388V63.656H528.9ZM577.094 99.08C573.302 99.08 570.014 98.24 567.23 96.56C564.47 94.88 562.322 92.516 560.786 89.468C559.25 86.42 558.482 82.844 558.482 78.74C558.482 74.492 559.238 70.82 560.75 67.724C562.262 64.628 564.386 62.24 567.122 60.56C569.882 58.88 573.134 58.04 576.878 58.04C580.718 58.04 583.994 58.928 586.706 60.704C589.418 62.456 591.47 64.976 592.862 68.264C594.254 71.552 594.89 75.476 594.77 80.036H589.37V78.164C589.274 73.124 588.182 69.32 586.094 66.752C584.03 64.184 581.006 62.9 577.022 62.9C572.846 62.9 569.642 64.256 567.41 66.968C565.202 69.68 564.098 73.544 564.098 78.56C564.098 83.456 565.202 87.26 567.41 89.972C569.642 92.66 572.798 94.004 576.878 94.004C579.662 94.004 582.086 93.368 584.15 92.096C586.238 90.8 587.882 88.94 589.082 86.516L594.014 88.424C592.478 91.808 590.21 94.436 587.21 96.308C584.234 98.156 580.862 99.08 577.094 99.08ZM562.226 80.036V75.608H591.926V80.036H562.226ZM602.759 98V59.12H607.511V68.48L606.575 67.256C607.007 66.104 607.571 65.048 608.267 64.088C608.963 63.104 609.719 62.3 610.535 61.676C611.543 60.788 612.719 60.116 614.063 59.66C615.407 59.18 616.763 58.904 618.131 58.832C619.499 58.736 620.747 58.832 621.875 59.12V64.088C620.459 63.728 618.911 63.644 617.231 63.836C615.551 64.028 614.003 64.7 612.587 65.852C611.291 66.86 610.319 68.072 609.671 69.488C609.023 70.88 608.591 72.368 608.375 73.952C608.159 75.512 608.051 77.06 608.051 78.596V98H602.759ZM641.806 99.044C637.246 99.044 633.49 98.06 630.538 96.092C627.61 94.124 625.81 91.388 625.138 87.884L630.538 86.984C631.114 89.192 632.422 90.956 634.462 92.276C636.526 93.572 639.07 94.22 642.094 94.22C645.046 94.22 647.374 93.608 649.078 92.384C650.782 91.136 651.634 89.444 651.634 87.308C651.634 86.108 651.358 85.136 650.806 84.392C650.278 83.624 649.186 82.916 647.53 82.268C645.874 81.62 643.402 80.852 640.114 79.964C636.586 79.004 633.826 78.044 631.834 77.084C629.842 76.124 628.426 75.02 627.586 73.772C626.746 72.5 626.326 70.952 626.326 69.128C626.326 66.92 626.95 64.988 628.198 63.332C629.446 61.652 631.174 60.356 633.382 59.444C635.59 58.508 638.158 58.04 641.086 58.04C644.014 58.04 646.63 58.52 648.934 59.48C651.262 60.416 653.134 61.736 654.55 63.44C655.966 65.144 656.806 67.124 657.07 69.38L651.67 70.352C651.31 68.072 650.17 66.272 648.25 64.952C646.354 63.608 643.942 62.912 641.014 62.864C638.254 62.792 636.01 63.32 634.282 64.448C632.554 65.552 631.69 67.028 631.69 68.876C631.69 69.908 632.002 70.796 632.626 71.54C633.25 72.26 634.378 72.944 636.01 73.592C637.666 74.24 640.018 74.948 643.066 75.716C646.642 76.628 649.45 77.588 651.49 78.596C653.53 79.604 654.982 80.792 655.846 82.16C656.71 83.528 657.142 85.22 657.142 87.236C657.142 90.908 655.774 93.8 653.038 95.912C650.326 98 646.582 99.044 641.806 99.044ZM679.54 98V46.16H696.316C696.724 46.16 697.564 46.172 698.836 46.196C700.108 46.22 701.332 46.304 702.508 46.448C706.684 46.952 710.224 48.404 713.128 50.804C716.032 53.204 718.24 56.252 719.752 59.948C721.264 63.644 722.02 67.688 722.02 72.08C722.02 76.472 721.264 80.516 719.752 84.212C718.24 87.908 716.032 90.956 713.128 93.356C710.224 95.756 706.684 97.208 702.508 97.712C701.332 97.856 700.108 97.94 698.836 97.964C697.564 97.988 696.724 98 696.316 98H679.54ZM689.476 88.784H696.316C696.964 88.784 697.84 88.772 698.944 88.748C700.048 88.7 701.044 88.592 701.932 88.424C704.188 87.968 706.024 86.912 707.44 85.256C708.88 83.6 709.936 81.608 710.608 79.28C711.304 76.952 711.652 74.552 711.652 72.08C711.652 69.488 711.292 67.028 710.572 64.7C709.876 62.372 708.808 60.404 707.368 58.796C705.928 57.188 704.116 56.168 701.932 55.736C701.044 55.544 700.048 55.436 698.944 55.412C697.84 55.388 696.964 55.376 696.316 55.376H689.476V88.784ZM748.729 99.08C744.745 99.08 741.229 98.228 738.181 96.524C735.157 94.796 732.781 92.432 731.053 89.432C729.349 86.408 728.497 82.952 728.497 79.064C728.497 74.816 729.337 71.12 731.017 67.976C732.697 64.832 735.013 62.396 737.965 60.668C740.917 58.916 744.313 58.04 748.153 58.04C752.233 58.04 755.701 59 758.557 60.92C761.413 62.84 763.525 65.54 764.893 69.02C766.261 72.5 766.741 76.592 766.333 81.296H756.649V77.696C756.649 73.736 756.013 70.892 754.741 69.164C753.493 67.412 751.441 66.536 748.585 66.536C745.249 66.536 742.789 67.556 741.205 69.596C739.645 71.612 738.865 74.6 738.865 78.56C738.865 82.184 739.645 84.992 741.205 86.984C742.789 88.952 745.105 89.936 748.153 89.936C750.073 89.936 751.717 89.516 753.085 88.676C754.453 87.836 755.497 86.624 756.217 85.04L766.009 87.848C764.545 91.4 762.229 94.16 759.061 96.128C755.917 98.096 752.473 99.08 748.729 99.08ZM735.841 81.296V74.024H761.617V81.296H735.841ZM820.207 98V75.032C820.207 72.464 819.595 70.472 818.371 69.056C817.171 67.616 815.503 66.896 813.367 66.896C811.999 66.896 810.811 67.22 809.803 67.868C808.795 68.492 808.003 69.38 807.427 70.532C806.875 71.66 806.599 72.968 806.599 74.456L802.495 71.72C802.495 69.056 803.119 66.704 804.367 64.664C805.639 62.624 807.331 61.04 809.443 59.912C811.579 58.76 813.943 58.184 816.535 58.184C820.975 58.184 824.323 59.504 826.579 62.144C828.859 64.76 829.999 68.192 829.999 72.44V98H820.207ZM773.335 98V59.12H781.975V72.008H783.199V98H773.335ZM796.807 98V75.032C796.807 72.464 796.195 70.472 794.971 69.056C793.771 67.616 792.103 66.896 789.967 66.896C787.927 66.896 786.283 67.604 785.035 69.02C783.811 70.412 783.199 72.224 783.199 74.456L779.095 71.576C779.095 69.032 779.731 66.752 781.003 64.736C782.275 62.72 783.979 61.124 786.115 59.948C788.275 58.772 790.687 58.184 793.351 58.184C796.399 58.184 798.895 58.832 800.839 60.128C802.807 61.424 804.259 63.152 805.195 65.312C806.131 67.472 806.599 69.848 806.599 72.44V98H796.807ZM856.153 99.08C852.241 99.08 848.809 98.204 845.857 96.452C842.905 94.7 840.601 92.288 838.945 89.216C837.313 86.12 836.497 82.568 836.497 78.56C836.497 74.504 837.337 70.94 839.017 67.868C840.697 64.772 843.013 62.36 845.965 60.632C848.917 58.904 852.313 58.04 856.153 58.04C860.065 58.04 863.497 58.916 866.449 60.668C869.425 62.42 871.741 64.844 873.397 67.94C875.053 71.012 875.881 74.552 875.881 78.56C875.881 82.592 875.041 86.156 873.361 89.252C871.705 92.324 869.389 94.736 866.413 96.488C863.461 98.216 860.041 99.08 856.153 99.08ZM856.153 89.936C859.297 89.936 861.637 88.88 863.173 86.768C864.733 84.632 865.513 81.896 865.513 78.56C865.513 75.104 864.721 72.344 863.137 70.28C861.577 68.216 859.249 67.184 856.153 67.184C854.017 67.184 852.265 67.664 850.897 68.624C849.529 69.584 848.509 70.916 847.837 72.62C847.189 74.324 846.865 76.304 846.865 78.56C846.865 82.04 847.645 84.812 849.205 86.876C850.789 88.916 853.105 89.936 856.153 89.936ZM897.935 99.08C893.039 99.08 889.079 97.976 886.055 95.768C883.055 93.536 881.231 90.392 880.583 86.336L890.591 84.824C890.999 86.648 891.899 88.076 893.291 89.108C894.707 90.14 896.495 90.656 898.655 90.656C900.431 90.656 901.799 90.32 902.759 89.648C903.719 88.952 904.199 87.992 904.199 86.768C904.199 86 904.007 85.388 903.623 84.932C903.239 84.452 902.375 83.984 901.031 83.528C899.711 83.072 897.647 82.472 894.839 81.728C891.671 80.912 889.139 80 887.243 78.992C885.347 77.984 883.979 76.784 883.139 75.392C882.299 73.976 881.879 72.272 881.879 70.28C881.879 67.784 882.515 65.624 883.787 63.8C885.059 61.952 886.847 60.536 889.151 59.552C891.479 58.544 894.215 58.04 897.359 58.04C900.407 58.04 903.107 58.508 905.459 59.444C907.811 60.38 909.707 61.712 911.147 63.44C912.611 65.168 913.511 67.208 913.847 69.56L903.839 71.36C903.671 69.92 903.047 68.78 901.967 67.94C900.887 67.1 899.423 66.608 897.575 66.464C895.775 66.344 894.323 66.584 893.219 67.184C892.139 67.784 891.599 68.648 891.599 69.776C891.599 70.448 891.827 71.012 892.283 71.468C892.763 71.924 893.735 72.392 895.199 72.872C896.687 73.352 898.943 73.976 901.967 74.744C904.919 75.512 907.283 76.412 909.059 77.444C910.859 78.452 912.167 79.676 912.983 81.116C913.799 82.532 914.207 84.248 914.207 86.264C914.207 90.248 912.767 93.38 909.887 95.66C907.007 97.94 903.023 99.08 897.935 99.08Z" fill="currentColor"/>
</svg>
