<svg xmlns="http://www.w3.org/2000/svg" viewBox="0 0 24 24" id="Filter-Text--Streamline-Streamline-3.0" height="24" width="24"><desc>Filter Text Streamline Icon: https://streamlinehq.com</desc><defs></defs><title>filter-text</title><path d="M16.047 2.16A1 1 0 0 0 15.294 0.5H2.7a1 1 0 0 0 -0.751 1.66L7.5 8.5v5.631a1 1 0 0 0 1.555 0.832l1 -0.667a1 1 0 0 0 0.445 -0.832V8.5Z" fill="none" stroke="#000000" stroke-linecap="round" stroke-linejoin="round" stroke-width="1"></path><path d="m17.5 14.502 4 0" fill="none" stroke="#000000" stroke-linecap="round" stroke-linejoin="round" stroke-width="1"></path><path d="m15.5 17.502 6 0" fill="none" stroke="#000000" stroke-linecap="round" stroke-linejoin="round" stroke-width="1"></path><path d="m15.5 20.502 6 0" fill="none" stroke="#000000" stroke-linecap="round" stroke-linejoin="round" stroke-width="1"></path><path d="M13.5 12.5a1 1 0 0 1 1 -1h8a1 1 0 0 1 1 1v10a1 1 0 0 1 -1 1h-8a1 1 0 0 1 -1 -1Z" fill="none" stroke="#000000" stroke-linecap="round" stroke-linejoin="round" stroke-width="1"></path></svg>