<svg xmlns="http://www.w3.org/2000/svg" fill="none" viewBox="0 0 24 24" id="Browser-Page-Text-2--Streamline-Streamline-3.0" height="24" width="24"><desc>Browser Page Text 2 Streamline Icon: https://streamlinehq.com</desc><path stroke="#000000" stroke-linecap="round" stroke-linejoin="round" d="M21.5 0.5h-19a2 2 0 0 0 -2 2v19a2 2 0 0 0 2 2h19a2 2 0 0 0 2 -2v-19a2 2 0 0 0 -2 -2Z" stroke-width="1"></path><path stroke="#000000" stroke-linecap="round" stroke-linejoin="round" d="M0.5 5.5h23" stroke-width="1"></path><path stroke="#000000" stroke-linecap="round" stroke-linejoin="round" d="M8.5 5.5v18" stroke-width="1"></path><path stroke="#000000" stroke-linecap="round" stroke-linejoin="round" d="M20 7.5h-8a0.5 0.5 0 0 0 -0.5 0.5v4a0.5 0.5 0 0 0 0.5 0.5h8a0.5 0.5 0 0 0 0.5 -0.5V8a0.5 0.5 0 0 0 -0.5 -0.5Z" stroke-width="1"></path><path stroke="#000000" stroke-linecap="round" stroke-linejoin="round" d="M20 15.5h-8a0.5 0.5 0 0 0 -0.5 0.5v4a0.5 0.5 0 0 0 0.5 0.5h8a0.5 0.5 0 0 0 0.5 -0.5v-4a0.5 0.5 0 0 0 -0.5 -0.5Z" stroke-width="1"></path><path stroke="#000000" stroke-linecap="round" stroke-linejoin="round" d="M2.521 7.5H4.5" stroke-width="1"></path><path stroke="#000000" stroke-linecap="round" stroke-linejoin="round" d="M4.521 9.5H6.5" stroke-width="1"></path><path stroke="#000000" stroke-linecap="round" stroke-linejoin="round" d="M4.521 11.5H6.5" stroke-width="1"></path><path stroke="#000000" stroke-linecap="round" stroke-linejoin="round" d="M4.521 13.5H6.5" stroke-width="1"></path><path stroke="#000000" stroke-linecap="round" stroke-linejoin="round" d="M2.521 15.5H4.5" stroke-width="1"></path><path stroke="#000000" stroke-linecap="round" stroke-linejoin="round" d="M4.521 17.5H6.5" stroke-width="1"></path><path stroke="#000000" stroke-linecap="round" stroke-linejoin="round" d="M4.521 19.5H6.5" stroke-width="1"></path><path stroke="#000000" d="M4 3.25a0.25 0.25 0 0 1 0 -0.5" stroke-width="1"></path><path stroke="#000000" d="M4 3.25a0.25 0.25 0 0 0 0 -0.5" stroke-width="1"></path><path stroke="#000000" d="M7 3.25a0.25 0.25 0 0 1 0 -0.5" stroke-width="1"></path><path stroke="#000000" d="M7 3.25a0.25 0.25 0 0 0 0 -0.5" stroke-width="1"></path><g><path stroke="#000000" d="M10 3.25a0.25 0.25 0 0 1 0 -0.5" stroke-width="1"></path><path stroke="#000000" d="M10 3.25a0.25 0.25 0 1 0 0 -0.5" stroke-width="1"></path></g></svg>