<svg xmlns="http://www.w3.org/2000/svg" fill="none" viewBox="0 0 24 24" id="Browser-Page-Text--Streamline-Streamline-3.0" height="24" width="24"><desc>Browser Page Text Streamline Icon: https://streamlinehq.com</desc><path stroke="#000000" stroke-linecap="round" stroke-linejoin="round" d="M21.5 0.5h-19a2 2 0 0 0 -2 2v19a2 2 0 0 0 2 2h19a2 2 0 0 0 2 -2v-19a2 2 0 0 0 -2 -2Z" stroke-width="1"></path><path stroke="#000000" stroke-linecap="round" stroke-linejoin="round" d="M0.5 5.5h23" stroke-width="1"></path><path stroke="#000000" stroke-linecap="round" stroke-linejoin="round" d="M20 8.5H4a0.5 0.5 0 0 0 -0.5 0.5v2a0.5 0.5 0 0 0 0.5 0.5h16a0.5 0.5 0 0 0 0.5 -0.5V9a0.5 0.5 0 0 0 -0.5 -0.5Z" stroke-width="1"></path><path stroke="#000000" stroke-linecap="round" stroke-linejoin="round" d="M6 13.5H4a0.5 0.5 0 0 0 -0.5 0.5v6a0.5 0.5 0 0 0 0.5 0.5h2a0.5 0.5 0 0 0 0.5 -0.5v-6a0.5 0.5 0 0 0 -0.5 -0.5Z" stroke-width="1"></path><path stroke="#000000" stroke-linecap="round" stroke-linejoin="round" d="M9.5 14.5h10" stroke-width="1"></path><path stroke="#000000" stroke-linecap="round" stroke-linejoin="round" d="M9.5 16.5h10" stroke-width="1"></path><path stroke="#000000" stroke-linecap="round" stroke-linejoin="round" d="M9.5 18.5h10" stroke-width="1"></path><path stroke="#000000" stroke-linecap="round" stroke-linejoin="round" d="M9.5 20.5h7" stroke-width="1"></path><path stroke="#000000" d="M4 3.25a0.25 0.25 0 0 1 0 -0.5" stroke-width="1"></path><path stroke="#000000" d="M4 3.25a0.25 0.25 0 0 0 0 -0.5" stroke-width="1"></path><path stroke="#000000" d="M7 3.25a0.25 0.25 0 0 1 0 -0.5" stroke-width="1"></path><path stroke="#000000" d="M7 3.25a0.25 0.25 0 0 0 0 -0.5" stroke-width="1"></path><g><path stroke="#000000" d="M10 3.25a0.25 0.25 0 0 1 0 -0.5" stroke-width="1"></path><path stroke="#000000" d="M10 3.25a0.25 0.25 0 1 0 0 -0.5" stroke-width="1"></path></g></svg>